<?xml version="1.0" encoding="UTF-8" standalone="no"?>
<!-- Created with Inkscape (http://www.inkscape.org/) -->

<svg
   xmlns:dc="http://purl.org/dc/elements/1.1/"
   xmlns:cc="http://creativecommons.org/ns#"
   xmlns:rdf="http://www.w3.org/1999/02/22-rdf-syntax-ns#"
   xmlns:svg="http://www.w3.org/2000/svg"
   xmlns="http://www.w3.org/2000/svg"
   xmlns:sodipodi="http://sodipodi.sourceforge.net/DTD/sodipodi-0.dtd"
   xmlns:inkscape="http://www.inkscape.org/namespaces/inkscape"
   width="60.076672mm"
   height="40.490093mm"
   viewBox="0 0 60.076671 40.490093"
   version="1.1"
   id="svg5447"
   inkscape:version="0.92.4 (5da689c313, 2019-01-14)"
   sodipodi:docname="No10.svg">
  <defs
     id="defs5441" />
  <sodipodi:namedview
     id="base"
     pagecolor="#ffffff"
     bordercolor="#666666"
     borderopacity="1.0"
     inkscape:pageopacity="0.0"
     inkscape:pageshadow="2"
     inkscape:zoom="3.2161063"
     inkscape:cx="58.398376"
     inkscape:cy="59.009954"
     inkscape:document-units="mm"
     inkscape:current-layer="layer1"
     showgrid="true"
     fit-margin-top="0"
     fit-margin-left="0"
     fit-margin-right="0"
     fit-margin-bottom="0"
     inkscape:window-width="1920"
     inkscape:window-height="1017"
     inkscape:window-x="-8"
     inkscape:window-y="-7"
     inkscape:window-maximized="1">
    <inkscape:grid
       type="xygrid"
       id="grid6006"
       originx="-8.9291114"
       originy="-248.19992" />
  </sodipodi:namedview>
  <metadata
     id="metadata5444">
    <rdf:RDF>
      <cc:Work
         rdf:about="">
        <dc:format>image/svg+xml</dc:format>
        <dc:type
           rdf:resource="http://purl.org/dc/dcmitype/StillImage" />
        <dc:title></dc:title>
      </cc:Work>
    </rdf:RDF>
  </metadata>
  <g
     inkscape:label="レイヤー 1"
     inkscape:groupmode="layer"
     id="layer1"
     transform="translate(-8.9291115,-8.3100141)">
    <path
       style="opacity:0;fill:#a5d3da;fill-opacity:1;stroke:#3b3847;stroke-width:1.09311008;stroke-linecap:round;stroke-linejoin:round;stroke-miterlimit:4;stroke-dasharray:none;stroke-dashoffset:0;stroke-opacity:1;paint-order:normal"
       d="M 21.411353,25.250736 H 53.88117 V 48.253552 H 21.411353 Z"
       id="rect6000"
       inkscape:connector-curvature="0" />
    <path
       id="path6047-5"
       style="fill:#606060;fill-opacity:1;stroke:#606060;stroke-width:0.66262215;stroke-linecap:round;stroke-linejoin:round;stroke-miterlimit:4;stroke-dasharray:none;stroke-opacity:1"
       d="m 33.585819,15.378529 8.234611,27.423595 c 7.614991,-4.68057 15.790745,-5.971812 24.325404,-5.093776 L 57.911223,10.284753 C 49.571307,9.4815025 41.404459,10.548532 33.585819,15.378529 Z M 9.2604167,20.472306 17.495027,47.8959 C 25.110018,43.215329 33.285772,41.924087 41.82043,42.802125 L 33.58582,15.378531 C 25.245905,14.57528 17.079057,15.642309 9.2604167,20.472306 Z"
       inkscape:connector-curvature="0" />
    <path
       inkscape:connector-curvature="0"
       id="path6047-5-4"
       style="fill:#ffffff;fill-opacity:1;stroke:#606060;stroke-width:0.66262215;stroke-linecap:round;stroke-linejoin:round;stroke-miterlimit:4;stroke-dasharray:none;stroke-opacity:1"
       d="m 33.837357,13.977027 8.23461,27.423594 c 7.614992,-4.680568 15.790745,-5.97181 24.325403,-5.093775 L 58.16276,8.8832515 C 49.822844,8.0800006 41.655996,9.1470296 33.837357,13.977027 Z M 9.5119537,19.070804 17.746564,46.494399 c 7.614993,-4.68057 15.790745,-5.971814 24.325404,-5.093775 L 33.837357,13.977029 C 25.497441,13.173778 17.330594,14.240807 9.5119537,19.070804 Z" />
    <g
       id="g6154"
       transform="matrix(0.76812083,0.61540243,-0.62331972,0.75836432,9.4870522,-40.186292)">
      <path
         inkscape:connector-curvature="0"
         id="path6143"
         d="m 72.760416,5.9583332 c 0,11.9062498 0,23.8125008 0,23.8125008 l 1.322916,-1.322916 1.322917,1.322916 1.322917,-1.322916 1.322916,1.322916 1.322917,-1.322916 1.322917,1.322916 V 5.9583332 Z"
         style="fill:#11e863;fill-opacity:1;stroke:#08672c;stroke-width:0.26458332px;stroke-linecap:butt;stroke-linejoin:miter;stroke-opacity:1" />
      <path
         inkscape:connector-curvature="0"
         id="path6145"
         d="m 72.760417,30.006417 2.645833,3.96875 h 2.645833 l 2.645834,-3.96875 -1.322917,-1.322916 -1.322917,1.322916 -1.322916,-1.322916 -1.322917,1.322916 -1.322917,-1.322916 z"
         style="fill:#ffffff;fill-opacity:1;stroke:#08672c;stroke-width:0.26458332px;stroke-linecap:butt;stroke-linejoin:miter;stroke-opacity:1" />
      <path
         inkscape:connector-curvature="0"
         id="path6147"
         d="M 75.307665,34.069499 76.729167,35.491 78.150665,34.069499 Z"
         style="fill:#08672c;fill-opacity:1;stroke:none;stroke-width:0.28429982px;stroke-linecap:butt;stroke-linejoin:miter;stroke-opacity:1" />
    </g>
    <path
       style="fill:none;stroke:#606060;stroke-width:1.18232584;stroke-linecap:butt;stroke-linejoin:miter;stroke-miterlimit:4;stroke-dasharray:none;stroke-opacity:1"
       d="m 15.530044,23.820089 c 3.026635,-1.318375 5.753422,-3.717672 16.301033,-4.188536"
       id="path6156"
       inkscape:connector-curvature="0"
       sodipodi:nodetypes="cc" />
    <path
       style="fill:none;stroke:#606060;stroke-width:1.18232584;stroke-linecap:butt;stroke-linejoin:miter;stroke-miterlimit:4;stroke-dasharray:none;stroke-opacity:1"
       d="m 17.285541,29.055759 c 3.026634,-1.318375 5.753421,-3.717672 16.301032,-4.188536"
       id="path6156-4"
       inkscape:connector-curvature="0"
       sodipodi:nodetypes="cc" />
    <path
       style="fill:none;stroke:#606060;stroke-width:1.18232584;stroke-linecap:butt;stroke-linejoin:miter;stroke-miterlimit:4;stroke-dasharray:none;stroke-opacity:1"
       d="m 19.291821,34.91971 c 3.026634,-1.318375 5.753421,-3.717673 16.301033,-4.188537"
       id="path6156-9"
       inkscape:connector-curvature="0"
       sodipodi:nodetypes="cc" />
  </g>
</svg>
